solid CATIA STL
  facet normal  0.000000e+00 -9.999999e-01  0.000000e+00
    outer loop
      vertex  1.580000e+04 -1.961000e+03  0.000000e+00
      vertex  1.860000e+04 -1.961000e+03  0.000000e+00
      vertex  1.580000e+04 -1.961000e+03  1.100000e+03
    endloop
  endfacet
  facet normal  0.000000e+00 -9.999999e-01  0.000000e+00
    outer loop
      vertex  1.580000e+04 -1.961000e+03  1.100000e+03
      vertex  1.860000e+04 -1.961000e+03  0.000000e+00
      vertex  1.860000e+04 -1.961000e+03  1.100000e+03
    endloop
  endfacet
  facet normal  1.000000e+00  0.000000e+00  0.000000e+00
    outer loop
      vertex  1.860000e+04 -1.961000e+03  0.000000e+00
      vertex  1.860000e+04  1.961000e+03  0.000000e+00
      vertex  1.860000e+04 -1.961000e+03  1.100000e+03
    endloop
  endfacet
  facet normal  1.000000e+00  -0.000000e+00  0.000000e+00
    outer loop
      vertex  1.860000e+04 -1.961000e+03  1.100000e+03
      vertex  1.860000e+04  1.961000e+03  0.000000e+00
      vertex  1.860000e+04  1.961000e+03  1.100000e+03
    endloop
  endfacet
  facet normal  0.000000e+00  0.000000e+00  9.999999e-01
    outer loop
      vertex  1.580000e+04 -1.961000e+03  1.100000e+03
      vertex  1.860000e+04 -1.961000e+03  1.100000e+03
      vertex  1.580000e+04  1.961000e+03  1.100000e+03
    endloop
  endfacet
  facet normal  -0.000000e+00  0.000000e+00  9.999999e-01
    outer loop
      vertex  1.580000e+04  1.961000e+03  1.100000e+03
      vertex  1.860000e+04 -1.961000e+03  1.100000e+03
      vertex  1.860000e+04  1.961000e+03  1.100000e+03
    endloop
  endfacet
  facet normal -1.000000e+00  0.000000e+00  0.000000e+00
    outer loop
      vertex  1.580000e+04 -1.961000e+03  0.000000e+00
      vertex  1.580000e+04 -1.961000e+03  1.100000e+03
      vertex  1.580000e+04  1.961000e+03  0.000000e+00
    endloop
  endfacet
  facet normal -1.000000e+00  0.000000e+00  0.000000e+00
    outer loop
      vertex  1.580000e+04  1.961000e+03  0.000000e+00
      vertex  1.580000e+04 -1.961000e+03  1.100000e+03
      vertex  1.580000e+04  1.961000e+03  1.100000e+03
    endloop
  endfacet
  facet normal  0.000000e+00  0.000000e+00 -9.999999e-01
    outer loop
      vertex  1.580000e+04 -1.961000e+03  0.000000e+00
      vertex  1.580000e+04  1.961000e+03  0.000000e+00
      vertex  1.860000e+04 -1.961000e+03  0.000000e+00
    endloop
  endfacet
  facet normal  0.000000e+00  0.000000e+00 -9.999999e-01
    outer loop
      vertex  1.860000e+04 -1.961000e+03  0.000000e+00
      vertex  1.580000e+04  1.961000e+03  0.000000e+00
      vertex  1.860000e+04  1.961000e+03  0.000000e+00
    endloop
  endfacet
  facet normal  0.000000e+00  9.999999e-01  0.000000e+00
    outer loop
      vertex  1.580000e+04  1.961000e+03  0.000000e+00
      vertex  1.580000e+04  1.961000e+03  1.100000e+03
      vertex  1.860000e+04  1.961000e+03  0.000000e+00
    endloop
  endfacet
  facet normal  0.000000e+00  9.999999e-01  -0.000000e+00
    outer loop
      vertex  1.860000e+04  1.961000e+03  0.000000e+00
      vertex  1.580000e+04  1.961000e+03  1.100000e+03
      vertex  1.860000e+04  1.961000e+03  1.100000e+03
    endloop
  endfacet
endsolid CATIA STL
