solid CATIA STL
  facet normal  1.000000e+00  0.000000e+00  0.000000e+00
    outer loop
      vertex  1.860000e+04 -5.850000e+03  9.650000e+03
      vertex  1.860000e+04  5.850000e+03  9.650000e+03
      vertex  1.860000e+04 -5.850000e+03  1.115000e+04
    endloop
  endfacet
  facet normal  1.000000e+00  -0.000000e+00  0.000000e+00
    outer loop
      vertex  1.860000e+04 -5.850000e+03  1.115000e+04
      vertex  1.860000e+04  5.850000e+03  9.650000e+03
      vertex  1.860000e+04  5.850000e+03  1.115000e+04
    endloop
  endfacet
  facet normal  -0.000000e+00  0.000000e+00  9.999999e-01
    outer loop
      vertex  1.860000e+04  5.850000e+03  1.115000e+04
      vertex  1.090000e+04  5.850000e+03  1.115000e+04
      vertex  1.860000e+04 -5.850000e+03  1.115000e+04
    endloop
  endfacet
  facet normal  0.000000e+00  0.000000e+00  9.999999e-01
    outer loop
      vertex  1.860000e+04 -5.850000e+03  1.115000e+04
      vertex  1.090000e+04  5.850000e+03  1.115000e+04
      vertex  1.090000e+04 -5.850000e+03  1.115000e+04
    endloop
  endfacet
  facet normal  0.000000e+00 -1.000000e+00  0.000000e+00
    outer loop
      vertex  1.090000e+04 -5.850000e+03  9.650000e+03
      vertex  1.860000e+04 -5.850000e+03  9.650000e+03
      vertex  1.090000e+04 -5.850000e+03  1.115000e+04
    endloop
  endfacet
  facet normal  0.000000e+00 -1.000000e+00  0.000000e+00
    outer loop
      vertex  1.090000e+04 -5.850000e+03  1.115000e+04
      vertex  1.860000e+04 -5.850000e+03  9.650000e+03
      vertex  1.860000e+04 -5.850000e+03  1.115000e+04
    endloop
  endfacet
  facet normal  0.000000e+00  0.000000e+00 -9.999999e-01
    outer loop
      vertex  1.860000e+04 -5.850000e+03  9.650000e+03
      vertex  1.090000e+04 -5.850000e+03  9.650000e+03
      vertex  1.860000e+04  5.850000e+03  9.650000e+03
    endloop
  endfacet
  facet normal  -0.000000e+00  0.000000e+00 -9.999999e-01
    outer loop
      vertex  1.860000e+04  5.850000e+03  9.650000e+03
      vertex  1.090000e+04 -5.850000e+03  9.650000e+03
      vertex  1.090000e+04  5.850000e+03  9.650000e+03
    endloop
  endfacet
  facet normal  0.000000e+00  1.000000e+00  0.000000e+00
    outer loop
      vertex  1.090000e+04  5.850000e+03  1.115000e+04
      vertex  1.860000e+04  5.850000e+03  1.115000e+04
      vertex  1.090000e+04  5.850000e+03  9.650000e+03
    endloop
  endfacet
  facet normal  0.000000e+00  1.000000e+00  0.000000e+00
    outer loop
      vertex  1.090000e+04  5.850000e+03  9.650000e+03
      vertex  1.860000e+04  5.850000e+03  1.115000e+04
      vertex  1.860000e+04  5.850000e+03  9.650000e+03
    endloop
  endfacet
  facet normal -1.000000e+00  0.000000e+00  0.000000e+00
    outer loop
      vertex  1.090000e+04  5.850000e+03  9.650000e+03
      vertex  1.090000e+04 -5.850000e+03  9.650000e+03
      vertex  1.090000e+04  5.850000e+03  1.115000e+04
    endloop
  endfacet
  facet normal -1.000000e+00  -0.000000e+00  0.000000e+00
    outer loop
      vertex  1.090000e+04  5.850000e+03  1.115000e+04
      vertex  1.090000e+04 -5.850000e+03  9.650000e+03
      vertex  1.090000e+04 -5.850000e+03  1.115000e+04
    endloop
  endfacet
endsolid CATIA STL
