solid CATIA STL
  facet normal  0.000000e+00  0.000000e+00  9.999999e-01
    outer loop
      vertex  5.856000e+04 -6.600000e+03  1.190500e+04
      vertex  7.114000e+04 -6.600000e+03  1.190500e+04
      vertex  5.856000e+04  6.600000e+03  1.190500e+04
    endloop
  endfacet
  facet normal  -0.000000e+00  0.000000e+00  9.999999e-01
    outer loop
      vertex  5.856000e+04  6.600000e+03  1.190500e+04
      vertex  7.114000e+04 -6.600000e+03  1.190500e+04
      vertex  7.114000e+04  6.600000e+03  1.190500e+04
    endloop
  endfacet
  facet normal  0.000000e+00  1.000000e+00  0.000000e+00
    outer loop
      vertex  5.856000e+04  6.600000e+03  1.100000e+03
      vertex  5.856000e+04  6.600000e+03  1.190500e+04
      vertex  7.114000e+04  6.600000e+03  1.100000e+03
    endloop
  endfacet
  facet normal  0.000000e+00  1.000000e+00  -0.000000e+00
    outer loop
      vertex  7.114000e+04  6.600000e+03  1.100000e+03
      vertex  5.856000e+04  6.600000e+03  1.190500e+04
      vertex  7.114000e+04  6.600000e+03  1.190500e+04
    endloop
  endfacet
  facet normal  0.000000e+00  0.000000e+00 -9.999999e-01
    outer loop
      vertex  5.856000e+04 -6.600000e+03  1.100000e+03
      vertex  5.856000e+04  6.600000e+03  1.100000e+03
      vertex  7.114000e+04 -6.600000e+03  1.100000e+03
    endloop
  endfacet
  facet normal  0.000000e+00  0.000000e+00 -9.999999e-01
    outer loop
      vertex  7.114000e+04 -6.600000e+03  1.100000e+03
      vertex  5.856000e+04  6.600000e+03  1.100000e+03
      vertex  7.114000e+04  6.600000e+03  1.100000e+03
    endloop
  endfacet
  facet normal  0.000000e+00 -1.000000e+00  0.000000e+00
    outer loop
      vertex  5.856000e+04 -6.600000e+03  1.100000e+03
      vertex  7.114000e+04 -6.600000e+03  1.100000e+03
      vertex  5.856000e+04 -6.600000e+03  1.190500e+04
    endloop
  endfacet
  facet normal  0.000000e+00 -1.000000e+00  0.000000e+00
    outer loop
      vertex  5.856000e+04 -6.600000e+03  1.190500e+04
      vertex  7.114000e+04 -6.600000e+03  1.100000e+03
      vertex  7.114000e+04 -6.600000e+03  1.190500e+04
    endloop
  endfacet
  facet normal  1.000000e+00  0.000000e+00  0.000000e+00
    outer loop
      vertex  7.114000e+04 -6.600000e+03  1.100000e+03
      vertex  7.114000e+04  6.600000e+03  1.100000e+03
      vertex  7.114000e+04 -6.600000e+03  1.190500e+04
    endloop
  endfacet
  facet normal  1.000000e+00  -0.000000e+00  0.000000e+00
    outer loop
      vertex  7.114000e+04 -6.600000e+03  1.190500e+04
      vertex  7.114000e+04  6.600000e+03  1.100000e+03
      vertex  7.114000e+04  6.600000e+03  1.190500e+04
    endloop
  endfacet
  facet normal -1.000000e+00  0.000000e+00  0.000000e+00
    outer loop
      vertex  5.856000e+04 -6.600000e+03  1.100000e+03
      vertex  5.856000e+04 -6.600000e+03  1.190500e+04
      vertex  5.856000e+04  6.600000e+03  1.100000e+03
    endloop
  endfacet
  facet normal -1.000000e+00  0.000000e+00  0.000000e+00
    outer loop
      vertex  5.856000e+04  6.600000e+03  1.100000e+03
      vertex  5.856000e+04 -6.600000e+03  1.190500e+04
      vertex  5.856000e+04  6.600000e+03  1.190500e+04
    endloop
  endfacet
endsolid CATIA STL
