solid CATIA STL
  facet normal  0.000000e+00  9.999999e-01  0.000000e+00
    outer loop
      vertex  1.051800e+05  6.600000e+03  1.100000e+03
      vertex  1.051800e+05  6.600000e+03  1.190500e+04
      vertex  1.059200e+05  6.600000e+03  1.100000e+03
    endloop
  endfacet
  facet normal  0.000000e+00  9.999999e-01  -0.000000e+00
    outer loop
      vertex  1.059200e+05  6.600000e+03  1.100000e+03
      vertex  1.051800e+05  6.600000e+03  1.190500e+04
      vertex  1.059200e+05  6.600000e+03  1.190500e+04
    endloop
  endfacet
  facet normal  0.000000e+00  0.000000e+00 -1.000000e+00
    outer loop
      vertex  1.051800e+05 -6.600000e+03  1.100000e+03
      vertex  1.051800e+05  6.600000e+03  1.100000e+03
      vertex  1.059200e+05 -6.600000e+03  1.100000e+03
    endloop
  endfacet
  facet normal  0.000000e+00  0.000000e+00 -1.000000e+00
    outer loop
      vertex  1.059200e+05 -6.600000e+03  1.100000e+03
      vertex  1.051800e+05  6.600000e+03  1.100000e+03
      vertex  1.059200e+05  6.600000e+03  1.100000e+03
    endloop
  endfacet
  facet normal  0.000000e+00 -9.999999e-01  0.000000e+00
    outer loop
      vertex  1.051800e+05 -6.600000e+03  1.100000e+03
      vertex  1.059200e+05 -6.600000e+03  1.100000e+03
      vertex  1.051800e+05 -6.600000e+03  1.190500e+04
    endloop
  endfacet
  facet normal  0.000000e+00 -9.999999e-01  0.000000e+00
    outer loop
      vertex  1.051800e+05 -6.600000e+03  1.190500e+04
      vertex  1.059200e+05 -6.600000e+03  1.100000e+03
      vertex  1.059200e+05 -6.600000e+03  1.190500e+04
    endloop
  endfacet
  facet normal  0.000000e+00  0.000000e+00  1.000000e+00
    outer loop
      vertex  1.051800e+05 -6.600000e+03  1.190500e+04
      vertex  1.059200e+05 -6.600000e+03  1.190500e+04
      vertex  1.051800e+05  6.600000e+03  1.190500e+04
    endloop
  endfacet
  facet normal  -0.000000e+00  0.000000e+00  1.000000e+00
    outer loop
      vertex  1.051800e+05  6.600000e+03  1.190500e+04
      vertex  1.059200e+05 -6.600000e+03  1.190500e+04
      vertex  1.059200e+05  6.600000e+03  1.190500e+04
    endloop
  endfacet
  facet normal  1.000000e+00  0.000000e+00  0.000000e+00
    outer loop
      vertex  1.059200e+05 -6.600000e+03  1.100000e+03
      vertex  1.059200e+05  6.600000e+03  1.100000e+03
      vertex  1.059200e+05 -6.600000e+03  1.190500e+04
    endloop
  endfacet
  facet normal  1.000000e+00  -0.000000e+00  0.000000e+00
    outer loop
      vertex  1.059200e+05 -6.600000e+03  1.190500e+04
      vertex  1.059200e+05  6.600000e+03  1.100000e+03
      vertex  1.059200e+05  6.600000e+03  1.190500e+04
    endloop
  endfacet
  facet normal -1.000000e+00  0.000000e+00  0.000000e+00
    outer loop
      vertex  1.051800e+05 -6.600000e+03  1.100000e+03
      vertex  1.051800e+05 -6.600000e+03  1.190500e+04
      vertex  1.051800e+05  6.600000e+03  1.100000e+03
    endloop
  endfacet
  facet normal -1.000000e+00  0.000000e+00  0.000000e+00
    outer loop
      vertex  1.051800e+05  6.600000e+03  1.100000e+03
      vertex  1.051800e+05 -6.600000e+03  1.190500e+04
      vertex  1.051800e+05  6.600000e+03  1.190500e+04
    endloop
  endfacet
endsolid CATIA STL
